<svg xmlns="http://www.w3.org/2000/svg" version="1.1" width="3840" height="1080">
<rect x="78.0" y="1.0" width="4.3" height="4.3" fill="#000000ff" />
<rect x="349.0" y="136.0" width="46.36349206349206" height="46.36349206349206" fill="#000000ff" />
<rect x="367.0" y="154.0" width="46.36349206349206" height="46.36349206349206" fill="#000000ff" />
<rect x="199.0" y="213.0" width="46.36349206349206" height="46.36349206349206" fill="#000000ff" />
<rect x="167.0" y="251.0" width="46.36349206349206" height="46.36349206349206" fill="#000000ff" />
<rect x="302.0" y="282.0" width="46.36349206349206" height="46.36349206349206" fill="#000000ff" />
<rect x="100.0" y="0.0" width="46.36349206349206" height="46.36349206349206" fill="#000000ff" />
<rect x="144.0" y="99.0" width="46.36349206349206" height="46.36349206349206" fill="#4d4d4dff" />
<rect x="127.0" y="125.0" width="46.36349206349206" height="46.36349206349206" fill="#4d4d4dff" />
<rect x="89.0" y="165.0" width="46.36349206349206" height="46.36349206349206" fill="#4d4d4dff" />
<rect x="190.0" y="187.0" width="46.36349206349206" height="46.36349206349206" fill="#4d4d4dff" />
<rect x="281.0" y="190.0" width="46.36349206349206" height="46.36349206349206" fill="#4d4d4dff" />
<rect x="343.0" y="225.0" width="46.36349206349206" height="46.36349206349206" fill="#4d4d4dff" />
<rect x="422.0" y="224.0" width="46.36349206349206" height="46.36349206349206" fill="#4d4d4dff" />
<rect x="446.0" y="143.0" width="46.36349206349206" height="46.36349206349206" fill="#4d4d4dff" />
<rect x="392.0" y="79.0" width="46.36349206349206" height="46.36349206349206" fill="#4d4d4dff" />
<rect x="284.0" y="45.0" width="46.36349206349206" height="46.36349206349206" fill="#4d4d4dff" />
<rect x="245.0" y="87.0" width="46.36349206349206" height="46.36349206349206" fill="#4d4d4dff" />
<rect x="262.0" y="277.0" width="46.36349206349206" height="46.36349206349206" fill="#4d4d4dff" />
<rect x="228.0" y="306.0" width="46.36349206349206" height="46.36349206349206" fill="#4d4d4dff" />
<rect x="192.0" y="312.0" width="46.36349206349206" height="46.36349206349206" fill="#4d4d4dff" />
<rect x="125.0" y="315.0" width="46.36349206349206" height="46.36349206349206" fill="#4d4d4dff" />
<rect x="327.0" y="326.0" width="46.36349206349206" height="46.36349206349206" fill="#4d4d4dff" />
<rect x="425.0" y="323.0" width="46.36349206349206" height="46.36349206349206" fill="#4d4d4dff" />
</svg>
